<?xml version="1.0" encoding="utf-8"?>
<!-- Uploaded to SVGRepo https://www.svgrepo.com -->
<svg version="1.1" id="Layer_1" xmlns="http://www.w3.org/2000/svg" xmlns:xlink="http://www.w3.org/1999/xlink" x="0px" y="0px"
	 width="236px" height="256px" viewBox="0 0 236 256" enable-background="new 0 0 236 256" xml:space="preserve">
<path d="M117.5,2c-12.47,0-22.63,10.16-22.63,22.63c0,12.46,10.06,22.62,22.63,22.62c12.37,0,22.62-10.16,22.62-22.62
	C140.12,12.16,129.97,2,117.5,2z M146,52H89c-15.59,0-28,13.41-28,29v32h20V86c0-1.71,1.29-3,3-3s3,1.29,3,3v27h61V86
	c0-1.71,1.29-3,3-3s3,1.29,3,3v27h20V81C174,65.51,161.49,52,146,52z M2,118v27h23v109h185V145h24v-27H2z M76.48,227.79l4.24-23.15
	L100,223.92L76.48,227.79z M102.29,221.06l-19.08-19.08l47.55-47.54l19.08,19.08L102.29,221.06z M158.45,164.9l-5.99,5.99
	l-19.08-19.04l6.02-5.99c1.75-1.79,5.15-1.28,7.54,1.11l10.4,10.4C159.73,159.72,160.23,163.12,158.45,164.9z"/>
</svg>
